<?xml version="1.0" encoding="UTF-8" standalone="no"?>
<!-- Created with Inkscape (http://www.inkscape.org/) -->

<svg
   xmlns:dc="http://purl.org/dc/elements/1.1/"
   xmlns:cc="http://creativecommons.org/ns#"
   xmlns:rdf="http://www.w3.org/1999/02/22-rdf-syntax-ns#"
   xmlns:svg="http://www.w3.org/2000/svg"
   xmlns="http://www.w3.org/2000/svg"
   xmlns:sodipodi="http://sodipodi.sourceforge.net/DTD/sodipodi-0.dtd"
   xmlns:inkscape="http://www.inkscape.org/namespaces/inkscape"
   width="210mm"
   height="297mm"
   viewBox="0 0 744.09448819 1052.3622047"
   id="svg2"
   version="1.1"
   inkscape:version="0.91 r13725"
   sodipodi:docname="Crystal Resource.svg">
  <defs
     id="defs4" />
  <sodipodi:namedview
     id="base"
     pagecolor="#ffffff"
     bordercolor="#666666"
     borderopacity="1.0"
     inkscape:pageopacity="0.0"
     inkscape:pageshadow="2"
     inkscape:zoom="6.8065772"
     inkscape:cx="25.374249"
     inkscape:cy="30.636097"
     inkscape:document-units="px"
     inkscape:current-layer="layer1"
     showgrid="false"
     inkscape:window-width="1920"
     inkscape:window-height="1138"
     inkscape:window-x="-8"
     inkscape:window-y="-8"
     inkscape:window-maximized="1" />
  <metadata
     id="metadata7">
    <rdf:RDF>
      <cc:Work
         rdf:about="">
        <dc:format>image/svg+xml</dc:format>
        <dc:type
           rdf:resource="http://purl.org/dc/dcmitype/StillImage" />
        <dc:title></dc:title>
      </cc:Work>
    </rdf:RDF>
  </metadata>
  <g
     inkscape:label="Layer 1"
     inkscape:groupmode="layer"
     id="layer1">
    <path
       style="fill:#8ebde4;fill-opacity:1;stroke:#000000;stroke-width:0.68101996;stroke-linecap:butt;stroke-linejoin:miter;stroke-miterlimit:4;stroke-dasharray:none;stroke-opacity:1"
       d="m 10.60151,1051.9281 c 0.0042,-0.1676 0.574944,-3.1851 1.268257,-6.7053 l 1.260569,-6.4005 -5.9740209,-0.1017 -5.9740213,-0.1015 5.9625674,-3.6261 c 3.2794128,-1.9944 6.0198278,-3.686 6.0898108,-3.7591 0.06999,-0.073 -2.007789,-2.6245 -4.6172718,-5.6698 -2.6094831,-3.0454 -4.7078291,-5.537 -4.6629907,-5.537 0.044837,0 2.1645346,0.7859 4.7104367,1.7466 2.5459018,0.9607 5.3101338,2.0025 6.1427338,2.3152 l 1.513821,0.5686 1.529994,-5.5155 c 0.841496,-3.0334 1.588532,-5.5826 1.660079,-5.6646 0.07154,-0.082 0.585864,2.3641 1.142928,5.4355 0.557066,3.0713 1.09925,5.5848 1.204861,5.5851 0.105608,3e-4 3.239274,-0.9209 6.9637,-2.0472 3.724426,-1.1261 6.794073,-2.0179 6.821436,-1.9816 0.02736,0.036 -2.072794,2.306 -4.667011,5.044 -2.594217,2.738 -4.71879,5.0239 -4.721269,5.0798 -0.0024,0.056 3.012262,1.4642 6.69943,3.1296 3.687167,1.6654 6.703938,3.0698 6.703938,3.121 0,0.051 -3.321098,0.025 -7.380222,-0.058 l -7.380221,-0.1508 0.114906,0.5854 c 0.573729,2.9232 2.488637,13.6029 2.447314,13.6491 -0.02924,0.032 -1.798145,-2.3219 -3.930897,-5.2321 -2.132757,-2.9103 -3.924981,-5.2862 -3.982724,-5.2796 -0.08491,0.01 -2.679193,3.4482 -8.535504,11.3129 -0.260443,0.3498 -0.415416,0.4467 -0.410629,0.257 z"
       id="path4148"
       inkscape:connector-curvature="0"
       inkscape:export-xdpi="90"
       inkscape:export-ydpi="90" />
  </g>
</svg>
